<svg xmlns="http://www.w3.org/2000/svg" width="1600" height="900" viewBox="0 0 1600 900" role="img" aria-label="100+ AI UGC PROMPT VAULT thumbnail">
  <defs>
    <linearGradient id="bg" x1="0" y1="0" x2="1" y2="1"><stop offset="0" stop-color="#020617"/><stop offset="0.48" stop-color="#062f52"/><stop offset="1" stop-color="#000814"/></linearGradient>
    <radialGradient id="glow1" cx="16%" cy="16%" r="52%"><stop offset="0" stop-color="#00a8ff" stop-opacity="0.52"/><stop offset="1" stop-color="#00a8ff" stop-opacity="0"/></radialGradient>
    <radialGradient id="glow2" cx="76%" cy="70%" r="50%"><stop offset="0" stop-color="#7dd3fc" stop-opacity="0.34"/><stop offset="1" stop-color="#7dd3fc" stop-opacity="0"/></radialGradient>
    <filter id="soft" x="-25%" y="-25%" width="150%" height="150%"><feDropShadow dx="0" dy="28" stdDeviation="30" flood-color="#000" flood-opacity="0.42"/></filter>
    <filter id="glow"><feDropShadow dx="0" dy="0" stdDeviation="16" flood-color="#00a8ff" flood-opacity="0.75"/></filter>
    <pattern id="dots" width="38" height="38" patternUnits="userSpaceOnUse"><circle cx="2" cy="2" r="2" fill="#ffffff" fill-opacity="0.055"/></pattern>
  </defs>
  <rect width="1600" height="900" fill="url(#bg)"/>
  <rect width="1600" height="900" fill="url(#glow1)"/>
  <rect width="1600" height="900" fill="url(#glow2)"/>
  <rect width="1600" height="900" fill="url(#dots)"/>
  <path d="M-60 690 C225 538 394 804 650 650 C887 508 1020 455 1660 540" fill="none" stroke="#00a8ff" stroke-opacity="0.25" stroke-width="5"/>
  
  <rect x="94" y="82" width="300" height="54" rx="27" fill="rgba(0,168,255,0.13)" stroke="#00a8ff" stroke-opacity="0.52"/>
  <text x="122" y="117" fill="#dff7ff" font-family="Manrope, Arial, sans-serif" font-size="22" font-weight="900" letter-spacing="0.18em">PROMPT PACK</text>
  <text x="96" y="210" fill="#ffffff" font-family="Space Grotesk, Manrope, Arial, sans-serif" font-size="80" font-weight="950" letter-spacing="-0.04em">100+ AI UGC</text>
<text x="96" y="298" fill="#ffffff" font-family="Space Grotesk, Manrope, Arial, sans-serif" font-size="80" font-weight="950" letter-spacing="-0.04em">PROMPT VAULT</text>
  <text x="100" y="505" fill="#b6d3e5" font-family="Manrope, Arial, sans-serif" font-size="32" font-weight="800">Hooks, scripts, briefs, demos, and CTA prompts.</text>
  <g transform="translate(650 172) rotate(-5)" filter="url(#soft)">
    <rect width="330" height="430" rx="38" fill="#06101f" stroke="#00a8ff" stroke-opacity="0.35"/>
    <rect x="34" y="48" width="190" height="22" rx="11" fill="#ffffff" fill-opacity="0.75"/>
    <rect x="34" y="106" width="254" height="18" rx="9" fill="#ffffff" fill-opacity="0.22"/>
    <rect x="34" y="142" width="218" height="18" rx="9" fill="#ffffff" fill-opacity="0.15"/>
    <rect x="34" y="206" width="260" height="82" rx="26" fill="#00a8ff" fill-opacity="0.16" stroke="#00a8ff" stroke-opacity="0.28"/>
    <text x="58" y="256" fill="#eefcff" font-family="Manrope, Arial, sans-serif" font-size="28" font-weight="950">100+ PROMPTS</text>
    <rect x="34" y="326" width="126" height="38" rx="19" fill="#00a8ff"/>
    <rect x="178" y="326" width="94" height="38" rx="19" fill="#ffffff" fill-opacity="0.12"/>
  </g>
  <g transform="translate(780 238) rotate(7)" filter="url(#soft)">
    <rect width="270" height="350" rx="34" fill="#030812" stroke="#ffffff" stroke-opacity="0.13"/>
    <circle cx="135" cy="154" r="66" fill="#00a8ff" fill-opacity="0.2" stroke="#00a8ff" stroke-opacity="0.38"/>
    <path d="M117 120 L172 154 L117 188 Z" fill="#fff" filter="url(#glow)"/>
    <rect x="38" y="264" width="190" height="14" rx="7" fill="#ffffff" fill-opacity="0.18"/>
    <rect x="38" y="264" width="122" height="14" rx="7" fill="#00a8ff"/>
  </g>
  <g transform="translate(1040 174)">
    <rect width="380" height="58" rx="24" fill="#06101f" stroke="#ffffff" stroke-opacity="0.09"/>
    <circle cx="33" cy="29" r="13" fill="#00a8ff"/>
    <path d="M27 28 L32 34 L42 22" fill="none" stroke="#02101c" stroke-width="5" stroke-linecap="round" stroke-linejoin="round"/>
    <text x="62" y="37" fill="#f8fafc" font-family="Manrope, Arial, sans-serif" font-size="22" font-weight="900">Hook prompts</text>
  </g>
<g transform="translate(1040 266)">
    <rect width="380" height="58" rx="24" fill="#06101f" stroke="#ffffff" stroke-opacity="0.09"/>
    <circle cx="33" cy="29" r="13" fill="#00a8ff"/>
    <path d="M27 28 L32 34 L42 22" fill="none" stroke="#02101c" stroke-width="5" stroke-linecap="round" stroke-linejoin="round"/>
    <text x="62" y="37" fill="#f8fafc" font-family="Manrope, Arial, sans-serif" font-size="22" font-weight="900">Demo scripts</text>
  </g>
<g transform="translate(1040 358)">
    <rect width="380" height="58" rx="24" fill="#06101f" stroke="#ffffff" stroke-opacity="0.09"/>
    <circle cx="33" cy="29" r="13" fill="#00a8ff"/>
    <path d="M27 28 L32 34 L42 22" fill="none" stroke="#02101c" stroke-width="5" stroke-linecap="round" stroke-linejoin="round"/>
    <text x="62" y="37" fill="#f8fafc" font-family="Manrope, Arial, sans-serif" font-size="22" font-weight="900">CTA rewrites</text>
  </g>
<g transform="translate(1040 450)">
    <rect width="380" height="58" rx="24" fill="#06101f" stroke="#ffffff" stroke-opacity="0.09"/>
    <circle cx="33" cy="29" r="13" fill="#00a8ff"/>
    <path d="M27 28 L32 34 L42 22" fill="none" stroke="#02101c" stroke-width="5" stroke-linecap="round" stroke-linejoin="round"/>
    <text x="62" y="37" fill="#f8fafc" font-family="Manrope, Arial, sans-serif" font-size="22" font-weight="900">AI UGC flow</text>
  </g>
  
  <rect x="98" y="740" width="185" height="54" rx="27" fill="rgba(0,168,255,0.13)" stroke="#00a8ff" stroke-opacity="0.52"/>
  <text x="126" y="775" fill="#dff7ff" font-family="Manrope, Arial, sans-serif" font-size="22" font-weight="900" letter-spacing="0.18em">HOOKS</text>

  <rect x="348" y="740" width="185" height="54" rx="27" fill="rgba(0,168,255,0.13)" stroke="#00a8ff" stroke-opacity="0.52"/>
  <text x="376" y="775" fill="#dff7ff" font-family="Manrope, Arial, sans-serif" font-size="22" font-weight="900" letter-spacing="0.18em">SCRIPTS</text>

  <rect x="598" y="740" width="185" height="54" rx="27" fill="rgba(0,168,255,0.13)" stroke="#00a8ff" stroke-opacity="0.52"/>
  <text x="626" y="775" fill="#dff7ff" font-family="Manrope, Arial, sans-serif" font-size="22" font-weight="900" letter-spacing="0.18em">BRIEFS</text>
  <text x="100" y="838" fill="#e8f8ff" font-family="Manrope, Arial, sans-serif" font-size="22" font-weight="900" letter-spacing="0.2em">UGCVISS RESOURCE VAULT</text>
</svg>